<?xml version="1.0" standalone="no"?>
<!DOCTYPE svg PUBLIC "-//W3C//DTD SVG 20010904//EN"
 "http://www.w3.org/TR/2001/REC-SVG-20010904/DTD/svg10.dtd">
<svg version="1.0" xmlns="http://www.w3.org/2000/svg"
 width="1280.000000pt" height="1074.000000pt" viewBox="0 0 1280.000000 1074.000000"
 preserveAspectRatio="xMidYMid meet">
<g transform="translate(0.000000,1074.000000) scale(0.100000,-0.100000)"
fill="#4b2a99" stroke="none">
<path d="M26 10732 c5 -5 126 -37 269 -72 662 -161 1087 -308 1535 -532 353
-176 550 -307 706 -470 171 -179 225 -289 354 -728 90 -304 190 -551 310 -765
145 -260 256 -517 335 -780 161 -533 251 -768 442 -1149 220 -439 426 -773
844 -1366 307 -435 394 -575 434 -694 8 -27 26 -63 38 -80 17 -24 23 -51 28
-119 5 -69 13 -100 37 -150 57 -115 95 -130 209 -84 l58 24 -2 51 c-1 29 0 52
4 52 10 0 141 -120 241 -220 199 -201 342 -390 432 -575 114 -233 149 -379
195 -820 42 -409 77 -597 156 -840 85 -264 117 -441 144 -785 32 -421 55 -519
140 -600 l36 -35 18 24 c36 48 73 208 116 505 39 273 54 431 66 746 16 387 3
851 -51 1775 -62 1059 -64 1503 -10 1764 23 111 60 192 102 222 16 12 62 28
101 35 79 15 110 37 137 99 35 80 78 100 238 109 133 8 186 20 243 57 58 37
111 44 226 30 118 -14 154 -3 173 56 31 94 65 109 273 121 178 11 183 13 247
131 54 99 84 121 172 128 75 5 114 19 124 41 3 10 10 55 14 101 10 121 17 126
175 114 192 -13 274 -9 322 16 48 24 70 58 78 122 16 116 20 119 218 135 182
15 246 33 303 89 45 43 64 91 64 161 0 72 13 79 137 79 101 0 111 2 161 29 68
38 109 85 117 133 4 21 11 48 16 61 14 36 87 62 222 78 388 46 433 57 469 105
14 18 24 58 32 125 18 151 33 170 216 285 149 93 187 123 210 168 36 71 152
213 551 677 228 265 329 390 329 406 0 17 -125 3 -291 -31 -200 -42 -465 -109
-1019 -256 -261 -70 -576 -151 -700 -181 -124 -30 -259 -63 -300 -74 -112 -29
-216 -37 -855 -65 -414 -18 -607 -31 -790 -51 -77 -8 -160 -14 -185 -12 -45 3
-45 3 -44 39 1 26 32 95 106 235 150 282 213 410 265 538 62 153 128 282 238
465 172 289 174 307 29 241 -209 -94 -594 -350 -1261 -837 -579 -422 -870
-611 -1158 -753 -252 -125 -448 -183 -675 -200 -133 -11 -417 -12 -442 -2 -10
4 -127 176 -261 382 -442 681 -708 1083 -795 1204 -122 167 -205 250 -342 338
-181 118 -312 169 -510 198 -121 18 -493 23 -815 11 l-300 -10 -396 184 c-510
237 -620 281 -964 383 -341 102 -815 210 -1060 242 -50 6 -109 16 -132 21 -52
11 -110 12 -97 1z m5498 -6758 c20 -8 21 -34 1 -34 -26 0 -28 -27 -4 -60 18
-24 21 -35 13 -48 -16 -25 -35 -24 -68 3 -27 21 -29 26 -18 50 7 14 12 37 12
51 0 22 7 28 47 43 1 1 8 -2 17 -5z"/>
</g>
</svg>
